<svg width="300" height="300" viewBox="0 0 300 300" fill="none" xmlns="http://www.w3.org/2000/svg">
<path d="M13.7617 86.8242C5.30481 105.104 0.419978 125.375 0.000970148 146.74L-6.41422e-06 146.74C0.419007 125.374 5.30363 105.105 13.7617 86.8242ZM34.6601 245.68C14.7931 221.828 2.18816 191.719 0.236321 158.74L0.237298 158.74C2.18914 191.719 14.7941 221.828 34.6611 245.68L34.6601 245.68ZM67.5557 73.8076C59.2212 95.2744 54.3139 120.16 53.9697 146.74L4.00097 146.74C4.68949 112.57 17.1144 81.2819 37.4131 56.7422C46.2572 63.2677 56.3929 69.0141 67.5557 73.8076ZM67.7217 226.098C56.6431 230.924 46.5923 236.695 37.831 243.235C18.4872 220.06 6.19295 190.798 4.24316 158.74L54.126 158.74C55.083 183.238 59.9203 206.154 67.7217 226.098ZM18.6572 77.1767C17.4342 79.3854 16.2653 81.6282 15.1523 83.9033C16.2655 81.6282 17.4341 79.3854 18.6572 77.1767ZM23.4033 69.1973C22.3223 70.8926 21.2756 72.6118 20.2617 74.3525C21.2756 72.6118 22.3222 70.8925 23.4033 69.1973ZM29.3672 60.5332C28.5679 61.6121 27.7825 62.7019 27.0117 63.8027C27.7825 62.7019 28.5678 61.6121 29.3672 60.5332ZM33.6602 55.0117C33.8498 54.7791 34.0385 54.5458 34.2295 54.3144L34.2295 54.3154C34.0386 54.5466 33.8496 54.7793 33.6602 55.0117ZM78.8936 17.6152C65.2769 24.956 52.9246 34.3405 42.2471 45.3574L42.2471 45.3564C52.9247 34.3396 65.2766 24.9556 78.8936 17.6152ZM52.6045 263.846C49.1711 260.913 45.8699 257.831 42.7148 254.604L42.7158 254.604C45.8707 257.831 49.1713 260.913 52.6045 263.846ZM124.779 5.90624C103.347 15.5305 84.9496 35.8476 72.2793 62.7764C64.1119 59.2684 56.5788 55.2336 49.8018 50.7617C48.3185 49.7829 46.8767 48.7851 45.4746 47.7724C66.4282 26.303 93.9437 11.2688 124.779 5.90624ZM124.772 293.57C94.1623 288.245 66.8262 273.388 45.9316 252.168C47.5033 251.019 49.1264 249.891 50.8017 248.785C57.3561 244.46 64.617 240.542 72.4756 237.116C85.1379 263.837 103.453 283.994 124.772 293.57ZM143.857 146.74L65.9736 146.74C66.3178 121.521 70.9887 98.1374 78.7393 78.168C98.27 85.0462 120.376 89.1585 143.857 89.709L143.857 146.74ZM143.857 209.864C120.405 210.516 98.3455 214.719 78.8818 221.682C71.6667 203.221 67.0878 181.822 66.1367 158.74L143.857 158.74L143.857 209.864ZM77.4512 281.073C84.4755 284.96 91.8444 288.299 99.501 291.034C91.8443 288.299 84.4756 284.96 77.4512 281.073ZM83.6943 15.1377C82.6492 15.6533 81.6113 16.1816 80.5801 16.7207C81.6114 16.1816 82.6491 15.6533 83.6943 15.1377ZM143.857 77.706C121.954 77.1647 101.486 73.3602 83.5029 67.1221C86.3755 61.1026 89.5439 55.4713 92.9687 50.2832C107.194 28.7344 125.091 15.7116 143.857 12.5156L143.857 77.706ZM143.857 286.965C125.091 283.769 107.194 270.746 92.9687 249.197C89.6117 244.112 86.5 238.601 83.6728 232.716C101.582 226.402 121.994 222.51 143.857 221.869L143.857 286.965ZM124.025 297.501C130.503 298.63 137.123 299.345 143.857 299.615C137.123 299.345 130.503 298.63 124.025 297.501ZM221.312 64.8164C202.187 72.299 179.902 76.9513 155.857 77.6728L155.857 11.8193C176.864 12.9477 197.179 26.3625 212.971 50.2832C215.955 54.8033 218.744 59.66 221.312 64.8164ZM155.857 146.74L155.857 89.6787C181.518 88.9484 205.507 83.9638 226.248 75.7686C234.567 96.254 239.609 120.504 239.967 146.74L155.857 146.74ZM239.804 158.74C238.822 182.554 233.979 204.577 226.363 223.429C205.556 215.335 181.53 210.46 155.857 209.841L155.857 158.74L239.804 158.74ZM221.447 234.396C218.842 239.652 216.006 244.599 212.971 249.197C197.179 273.118 176.864 286.533 155.857 287.661L155.857 221.845C179.922 222.456 202.25 227.007 221.447 234.396ZM195.325 292.756C183.702 296.439 171.466 298.744 158.808 299.479C158.817 299.479 158.826 299.478 158.835 299.478C171.483 298.74 183.71 296.436 195.325 292.756ZM160.561 0.110345C169.505 0.7344 178.232 2.14165 186.676 4.26562C178.232 2.14195 169.504 0.734316 160.561 0.110345ZM253.887 47.1895C252.235 48.4032 250.527 49.5957 248.76 50.7617C243.691 54.1064 238.199 57.2076 232.336 60.0264C220.669 36.38 204.504 18.1227 185.763 8.1621C212.023 14.7807 235.454 28.5118 253.887 47.1895ZM254.268 251.902C235.779 270.775 212.208 284.648 185.77 291.313C204.596 281.305 220.82 262.925 232.498 239.121C238.677 242.045 244.45 245.282 249.76 248.785C251.306 249.806 252.809 250.845 254.268 251.902ZM211.074 12.7129C205.992 10.4433 200.761 8.44804 195.398 6.74609C200.761 8.44823 205.992 10.443 211.074 12.7129ZM214.601 285.136C208.446 288.079 202.06 290.614 195.477 292.708C202.06 290.615 208.446 288.079 214.601 285.136ZM227.909 21.5547C227.091 21.056 226.266 20.5664 225.437 20.083C226.266 20.5664 227.091 21.0559 227.909 21.5547ZM229.359 22.4492C230.752 23.3195 232.128 24.2128 233.489 25.127C232.128 24.2128 230.752 23.3194 229.359 22.4492ZM239.25 270.282C236.738 272.146 234.167 273.932 231.538 275.639C234.167 273.932 236.738 272.145 239.25 270.282ZM251.971 146.74C251.611 118.982 246.274 93.0726 237.256 70.9746C246.319 66.6383 254.619 61.6493 261.996 56.1123C282.605 80.7456 295.241 112.277 295.936 146.74L251.971 146.74ZM295.693 158.74C293.752 190.665 281.551 219.818 262.346 242.947C254.897 237.43 246.527 232.467 237.395 228.162C245.678 207.742 250.824 184.088 251.814 158.74L295.693 158.74ZM256.761 44.4082C256.08 43.7181 255.394 43.0333 254.7 42.3564C255.394 43.0333 256.08 43.7181 256.761 44.4082ZM269.788 59.4912C268.99 58.4332 268.178 57.3865 267.353 56.3506C268.178 57.3865 268.99 58.4332 269.788 59.4912ZM269.788 239.987C269.37 240.542 268.947 241.093 268.521 241.642C268.947 241.093 269.37 240.542 269.788 239.987ZM273.395 234.999C273.442 234.932 273.488 234.863 273.534 234.796C273.488 234.863 273.442 234.932 273.395 234.999ZM276.106 68.5371C275.362 67.3826 274.601 66.2389 273.826 65.1064C274.601 66.2389 275.362 67.3826 276.106 68.5371ZM279.411 73.9033C280.108 75.0896 280.787 76.2873 281.451 77.4941C280.787 76.2873 280.108 75.0896 279.411 73.9033ZM282.278 220.462C281.719 221.507 281.147 222.544 280.563 223.574C281.147 222.544 281.719 221.507 282.278 220.462ZM285.519 214.046C285.034 215.065 284.54 216.078 284.033 217.084C284.54 216.078 285.034 215.065 285.519 214.046ZM286.354 87.2187C285.824 86.0651 285.281 84.919 284.723 83.7812C285.281 84.919 285.824 86.0651 286.354 87.2187ZM288.601 207.111C288.356 207.7 288.109 208.288 287.857 208.873C288.109 208.288 288.357 207.7 288.601 207.111ZM289.645 94.9482C290.172 96.2929 290.68 97.6475 291.17 99.0107C290.68 97.6475 290.172 96.2929 289.645 94.9482ZM291.337 200C291.063 200.772 290.782 201.54 290.495 202.306C290.782 201.54 291.063 200.772 291.337 200ZM294.014 191.711C293.637 193.006 293.243 194.294 292.832 195.575C293.243 194.294 293.637 193.006 294.014 191.711ZM294.204 108.424C293.937 107.488 293.659 106.556 293.374 105.628C293.659 106.556 293.937 107.488 294.204 108.424ZM295.964 184.299C295.529 186.145 295.059 187.977 294.557 189.796C295.059 187.977 295.529 186.145 295.964 184.299ZM296.821 119.043C296.522 117.606 296.203 116.176 295.863 114.754C296.203 116.176 296.522 117.606 296.821 119.043ZM297.49 177.016C297.252 178.311 296.998 179.6 296.727 180.884C296.998 179.6 297.252 178.311 297.49 177.016ZM297.18 120.819C297.273 121.296 297.364 121.774 297.452 122.252C297.364 121.774 297.273 121.296 297.18 120.819ZM298.673 169.513C298.493 170.876 298.295 172.233 298.079 173.585C298.295 172.233 298.493 170.876 298.673 169.513ZM298.904 131.812C298.669 129.839 298.396 127.877 298.085 125.928C298.396 127.877 298.669 129.839 298.904 131.812ZM299.469 162.026C299.358 163.387 299.229 164.742 299.083 166.092C299.229 164.742 299.358 163.387 299.469 162.026ZM299.816 143.031C299.754 141.603 299.672 140.18 299.569 138.763C299.672 140.18 299.754 141.603 299.816 143.031ZM54.0625 265.077C53.675 264.755 53.2894 264.43 52.9053 264.104C53.2894 264.43 53.675 264.755 54.0625 265.077ZM59.5137 269.405C59.1113 269.101 58.7107 268.794 58.3115 268.485C58.7107 268.794 59.1113 269.101 59.5137 269.405ZM101.089 291.592C100.603 291.424 100.118 291.255 99.6338 291.083C100.118 291.255 100.603 291.424 101.089 291.592ZM104.504 292.723C103.997 292.561 103.49 292.398 102.985 292.231C103.49 292.398 103.997 292.561 104.504 292.723ZM114.915 295.618C114.387 295.492 113.859 295.363 113.333 295.23C113.859 295.363 114.387 295.492 114.915 295.618ZM158.835 -6.16249e-06C159.411 0.0335818 159.986 0.0702734 160.561 0.110345C159.986 0.070279 159.411 0.0335774 158.835 -6.16249e-06ZM219.072 282.904C218.655 283.121 218.237 283.336 217.818 283.549C218.237 283.336 218.655 283.121 219.072 282.904ZM217.602 283.658C217.161 283.881 216.72 284.103 216.277 284.321C216.72 284.103 217.161 283.881 217.602 283.658ZM228.625 21.9951C228.87 22.1463 229.115 22.2967 229.359 22.4492C229.115 22.2967 228.87 22.1463 228.625 21.9951ZM240.618 269.255C240.279 269.512 239.94 269.77 239.599 270.024C239.94 269.77 240.279 269.512 240.618 269.255ZM253.795 41.4844C253.683 41.3768 253.572 41.2674 253.46 41.1602C253.572 41.2674 253.683 41.3768 253.795 41.4844ZM251.605 39.4258C251.81 39.6144 252.016 39.8015 252.22 39.9912C252.016 39.8015 251.81 39.6144 251.605 39.4258ZM278.704 72.7148C278.941 73.1101 279.178 73.5057 279.411 73.9033C279.178 73.5057 278.941 73.1101 278.704 72.7148ZM289.153 93.7168C289.318 94.1266 289.483 94.5367 289.645 94.9482C289.483 94.5367 289.318 94.1266 289.153 93.7168ZM296.868 119.266C296.975 119.783 297.078 120.3 297.18 120.819C297.078 120.301 296.975 119.783 296.868 119.266Z" fill="white"/>
</svg>
