<svg width="88" height="132" viewBox="0 0 88 132" fill="none" xmlns="http://www.w3.org/2000/svg">
<path d="M0.999996 44C0.999995 20.2518 20.2518 0.999999 44 0.999998C67.7482 0.999997 87 20.2518 87 44L87 88C87 111.748 67.7482 131 44 131C20.2518 131 0.999999 111.748 0.999998 88L0.999996 44ZM9 88C9 107.33 24.67 123 44 123C63.33 123 79 107.33 79 88L79 54L58.5 54L58.5 55.0947C58.4997 63.3265 51.8266 69.9997 43.5947 70C35.8107 70 29.5 63.6893 29.5 55.9053L29.5 54L9 54L9 88ZM48 30.5625C54.062 32.2993 58.5 37.8788 58.5 44.5L58.5 46L79 46L79 44C79 26.023 65.4457 11.2139 48 9.22949L48 30.5625ZM37.5 55.9053C37.5 59.2711 40.2289 62 43.5947 62L43.9502 61.9912C47.5986 61.806 50.4998 58.7891 50.5 55.0947L50.5 44.5C50.5 40.9101 47.5898 38 44 38C40.4101 38 37.5 40.9101 37.5 44.5L37.5 55.9053ZM29.5 46L29.5 44.5C29.5 37.8788 33.938 32.2993 40 30.5625L40 9.22949C22.5543 11.2139 9 26.023 9 44L9 46L29.5 46Z" fill="black" stroke="black" stroke-width="2"/>
</svg>
